#!OML:ASF H:\ColoradoDance\Project 1\Capture day 1\Session 8\male.ASF
:FULLY-SPECIFIED
:DEGREES
1
upperback 3.286520 11.564600 -7.672590
rfoot -34.891800 -9.144460
lradius 15.189600
lthumb -8.597240 32.146301
rradius 24.941200
lwrist -2.423820
rhand -21.349100 9.725360
rhumerus 34.612400 6.603670 -36.958900
lowerneck -7.611340 1.011430 2.405270
lhand -35.468800 2.341390
ltibia 75.255402
head 7.762720 -0.633893 4.492940
rwrist 5.518250
lfingers 7.125020
rtoes -3.488640
lowerback 6.612890 9.274760 -1.519430
rfingers 7.125020
lclavicle -0.000000 -0.000000
upperneck 20.127300 -3.528420 15.885700
rfemur -41.125099 -13.872600 54.066502
thorax 1.094950 5.628810 -7.733360
rclavicle -0.000000 -0.000000
rtibia 57.891800
lfoot 14.858900 4.566530
lhumerus -34.558102 8.427790 16.938801
rthumb 5.037250 -20.194799
root 3.780540 17.420099 -1.637870 -176.298996 -28.306499 -159.514999
ltoes -19.759800
lfemur -68.291199 -20.576300 31.600201
2
upperback 3.228050 11.817700 -7.866520
rfoot -34.653599 -9.019570
lradius 15.555500
lthumb -8.665810 31.915001
rradius 25.070400
lwrist 0.172481
rhand -18.183399 12.172800
rhumerus 34.878101 6.602390 -37.695599
lowerneck -7.125740 0.790354 2.180120
lhand -35.539902 2.112910
ltibia 74.829697
head 7.709680 -0.814416 4.587430
rwrist 6.102590
lfingers 7.125020
rtoes -3.168530
lowerback 6.592250 9.484190 -1.608460
rfingers 7.125020
lclavicle 0.000000 0.000000
upperneck 20.146601 -3.851010 16.139601
rfemur -41.162998 -13.498900 53.951698
thorax 1.103300 5.751760 -7.899420
rclavicle 0.000000 0.000000
rtibia 57.673500
lfoot 14.748200 4.979600
lhumerus -33.438301 5.847040 18.580099
rthumb 8.093290 -17.652201
root 3.842220 17.435400 -1.616210 -175.932007 -27.790001 -159.876007
ltoes -19.971500
lfemur -67.978203 -20.801100 31.752600
3
upperback 3.326330 12.247700 -7.869760
rfoot -34.483101 -8.748640
lradius 15.778400
lthumb -8.506410 32.150600
rradius 24.961700
lwrist 2.784420
rhand -14.086700 12.791300
rhumerus 35.146599 6.765160 -37.388599
lowerneck -6.352520 0.709014 1.886440
lhand -35.374699 2.341900
ltibia 74.904099
head 7.530470 -0.887394 4.640690
rwrist 5.828630
lfingers 7.125020
rtoes -2.836400
lowerback 6.068030 9.778190 -1.653100
rfingers 7.125020
lclavicle 0.000000 -0.000000
upperneck 20.042601 -3.867690 16.172800
rfemur -41.196602 -12.786900 53.479000
thorax 1.540630 5.971550 -7.783370
rclavicle 0.000000 -0.000000
rtibia 57.990700
lfoot 14.829900 5.583060
lhumerus -34.316700 4.208570 19.695499
rthumb 12.045500 -16.842100
root 3.875650 17.419901 -1.566150 -175.623001 -26.727900 -160.386993
ltoes -20.124500
lfemur -67.546097 -20.943300 31.488100
4
upperback 3.337520 12.542800 -7.674770
rfoot -34.255299 -8.750900
lradius 16.103600
lthumb -8.239810 32.657902
rradius 24.993000
lwrist 5.492870
rhand -11.561500 14.001700
rhumerus 35.304298 7.102200 -36.966702
lowerneck -5.787520 0.691877 1.663260
lhand -35.098499 2.838570
ltibia 74.928596
head 7.502950 -0.935669 4.667640
rwrist 6.660470
lfingers 7.125020
rtoes -2.916730
lowerback 5.995700 9.969820 -1.400080
rfingers 7.125020
lclavicle -0.000000 0.000000
upperneck 20.282600 -3.880790 16.128700
rfemur -40.843201 -12.230500 53.494202
thorax 1.638480 6.131250 -7.698960
rclavicle -0.000000 0.000000
rtibia 57.889198
lfoot 15.133800 6.327360
lhumerus -35.280602 2.386660 20.608299
rthumb 14.479500 -15.473100
root 3.892540 17.416599 -1.513590 -175.880997 -26.024401 -160.225998
ltoes -19.511499
lfemur -67.177803 -21.431000 31.788200
5
upperback 3.367220 12.805100 -7.713780
rfoot -34.165699 -8.838420
lradius 16.318501
lthumb -8.150570 32.849499
rradius 24.776501
lwrist 7.573350
rhand -9.385550 13.912400
rhumerus 35.769100 6.462890 -37.278702
lowerneck -4.947150 0.660761 1.315980
lhand -35.006001 3.026720
ltibia 74.837700
head 7.212590 -0.980040 4.822500
rwrist 7.938980
lfingers 7.125020
rtoes -2.609880
lowerback 5.787240 10.185300 -1.837970
rfingers 7.125020
lclavicle -0.000000 0.000000
upperneck 19.874001 -3.829350 16.440001
rfemur -40.963100 -11.378600 52.980099
thorax 1.729440 6.245880 -7.475710
rclavicle -0.000000 0.000000
rtibia 58.128300
lfoot 15.534500 6.426270
lhumerus -35.776699 0.760473 21.566099
rthumb 16.575300 -15.399800
root 3.912910 17.406700 -1.454010 -175.636002 -25.338699 -160.653000
ltoes -19.640900
lfemur -67.081902 -21.551701 31.682199
